<?xml version="1.0" encoding="utf-8"?>
<!-- Generator: Adobe Illustrator 26.1.0, SVG Export Plug-In . SVG Version: 6.00 Build 0)  -->
<svg version="1.1" id="Layer_1" xmlns="http://www.w3.org/2000/svg" xmlns:xlink="http://www.w3.org/1999/xlink" x="0px" y="0px"
	 viewBox="0 0 454.4 168.6" style="enable-background:new 0 0 454.4 168.6;" xml:space="preserve">
<style type="text/css">
	.st0{fill:#3C1B89;}
</style>
<g>
	<polygon class="st0" points="62.7,65.5 23.2,0 0,0 0,131.1 21.5,131.1 21.5,37.5 61.4,103.6 64,103.6 103.9,37.6 103.9,131.1 
		125.5,131.1 125.5,0 102.4,0 	"/>
	<path class="st0" d="M189.5,105.4l-27.9-68h-22.1l39.7,91.9l-0.9,1.9c-4.7,12.4-11.8,19.1-24.9,18.4v18.9
		c21.5,1.3,36.9-10.7,45.7-34.5l36-96.6h-21.5L189.5,105.4z"/>
	<path class="st0" d="M260.3,63.3c0-6.7,6.4-9.9,13.7-9.9c7.7,0,14.2,3.4,17.6,10.7l17-9.6C302.1,42.1,289.3,35,274,35
		c-19.1,0-34.3,11-34.3,28.7c0,33.5,50.4,24.2,50.4,40.8c0,7.5-6.9,10.5-15.9,10.5c-10.3,0-17.8-5.1-20.8-13.5L236,111.6
		c6,13.5,19.5,21.9,38.2,21.9c20.2,0,36.5-10.1,36.5-28.8C310.7,70,260.3,80.3,260.3,63.3z"/>
	<rect x="327.3" y="50.6" class="st0" width="20.2" height="80.5"/>
	<rect x="367.8" y="50.6" class="st0" width="20.2" height="80.5"/>
	<rect x="327.3" y="20.2" class="st0" width="20.2" height="20.2"/>
	<rect x="367.8" y="20.2" class="st0" width="20.2" height="20.2"/>
	<path class="st0" d="M454.4,70.8V50.6h-1.5h-18.7V20.2h-20v30.3h-11.1v16.3v4h10.6v29.4c0,27.5,22.7,30.9,34.1,30.9
		c3.9,0,6.3-0.5,6.3-0.5v-17.9c0,0-1.4,0.3-3.7,0.3c-5.6,0-16.3-1.9-16.3-15.5V70.8H454.4z"/>
</g>
</svg>
